<?xml version="1.0" standalone="no"?>
<!DOCTYPE svg PUBLIC "-//W3C//DTD SVG 20010904//EN"
 "http://www.w3.org/TR/2001/REC-SVG-20010904/DTD/svg10.dtd">
<svg version="1.0" xmlns="http://www.w3.org/2000/svg"
 width="254.000000pt" height="256.000000pt" viewBox="0 0 254.000000 256.000000"
 preserveAspectRatio="xMidYMid meet">

<g transform="translate(0.000000,256.000000) scale(0.100000,-0.100000)"
fill="#000000" stroke="none">
<path d="M1145 2553 c-254 -33 -467 -117 -643 -253 -257 -198 -413 -456 -478
-785 -25 -126 -25 -360 0 -474 56 -259 164 -466 334 -643 189 -196 405 -316
672 -374 103 -22 348 -25 455 -6 436 80 803 382 964 795 64 167 86 284 86 472
0 174 -14 257 -66 416 -60 185 -135 305 -294 471 -200 209 -433 330 -720 373
-92 14 -237 18 -310 8z m328 -78 c481 -84 850 -430 971 -911 40 -159 37 -399
-8 -575 -93 -366 -315 -641 -650 -804 -416 -203 -910 -142 -1281 158 -168 136
-309 345 -380 562 -95 292 -69 646 67 920 83 165 238 349 381 449 135 94 319
171 482 200 107 19 312 20 418 1z"/>
<path d="M1308 2413 c-9 -2 -24 -26 -33 -54 -9 -27 -20 -51 -25 -54 -5 -3 -17
19 -26 50 -18 55 -18 55 -58 55 l-41 0 3 -101 c2 -67 -1 -105 -9 -115 -9 -12
-6 -14 22 -14 l34 0 -2 72 -3 73 29 -70 c15 -38 33 -71 38 -72 6 -2 20 25 33
59 33 93 43 95 38 11 l-4 -73 39 0 c33 0 38 3 32 18 -4 9 -9 62 -11 117 -4
106 -7 112 -56 98z"/>
<path d="M1440 2381 c0 -14 -7 -58 -17 -98 -15 -67 -15 -73 0 -97 11 -15 30
-28 52 -32 74 -14 100 9 124 111 7 28 19 60 26 71 13 20 12 22 -8 28 -34 9
-37 8 -37 -15 0 -28 -30 -131 -42 -146 -18 -22 -57 -16 -63 10 -7 28 22 149
38 159 16 10 4 18 -37 28 -34 8 -36 7 -36 -19z"/>
<path d="M841 2337 c-84 -43 -84 -171 -1 -221 62 -36 140 -5 161 64 32 106
-68 205 -160 157z m60 -37 c47 -26 67 -130 29 -150 -31 -17 -58 -3 -80 40 -42
82 -13 144 51 110z"/>
<path d="M1685 2320 c9 -14 -71 -166 -92 -174 -16 -7 -15 -9 7 -21 29 -17 54
-19 45 -5 -6 10 38 105 55 115 6 4 10 -22 10 -73 0 -62 4 -85 18 -102 l19 -23
48 89 c27 49 55 94 63 100 12 8 10 13 -12 27 -33 22 -36 21 -36 -5 0 -13 -10
-39 -22 -58 l-23 -35 -2 35 c-8 98 -14 117 -39 129 -30 14 -47 14 -39 1z"/>
<path d="M653 2235 c-15 -13 -22 -25 -16 -25 20 0 123 -161 123 -192 0 -21 4
-26 16 -21 48 18 33 87 -40 188 -20 27 -36 56 -36 62 0 20 -16 16 -47 -12z"/>
<path d="M1881 2145 c-38 -60 -73 -101 -93 -108 -9 -3 -6 -12 11 -31 27 -29
51 -34 51 -11 0 20 95 141 118 150 15 6 13 10 -13 31 -16 13 -32 24 -35 23 -3
0 -20 -24 -39 -54z"/>
<path d="M509 2103 c-41 -44 -50 -58 -38 -62 24 -9 139 -116 139 -129 0 -20
14 -14 58 24 57 49 69 72 45 90 -26 19 -31 17 -35 -12 -4 -39 -32 -53 -57 -30
-27 24 -27 46 -1 53 24 6 25 16 5 33 -13 11 -18 10 -31 -8 -12 -18 -19 -20
-35 -12 -10 6 -19 17 -19 25 0 16 40 46 52 39 4 -3 8 1 8 8 0 7 -9 19 -19 25
-17 11 -26 5 -72 -44z"/>
<path d="M1065 2069 c-164 -40 -332 -146 -442 -278 -65 -78 -146 -238 -170
-336 -23 -97 -24 -307 0 -394 42 -156 99 -258 206 -373 84 -89 160 -145 265
-193 122 -57 184 -69 346 -69 162 0 224 12 346 69 105 48 180 102 264 192 107
112 164 216 207 374 27 98 24 309 -5 413 -86 299 -318 525 -612 596 -114 27
-292 27 -405 -1z m453 -41 c122 -43 177 -70 254 -128 117 -89 250 -289 290
-438 30 -113 30 -298 0 -407 -66 -232 -245 -447 -442 -530 -151 -64 -203 -75
-350 -75 -147 0 -199 11 -350 75 -198 83 -380 303 -441 530 -28 105 -30 288
-5 390 24 92 86 217 158 313 104 137 198 203 398 275 76 27 166 36 293 31 87
-4 126 -11 195 -36z"/>
<path d="M1220 1924 c-39 -36 -144 -184 -168 -237 -19 -43 -15 -66 19 -109 18
-21 28 -43 23 -47 -5 -4 -34 -18 -65 -30 -69 -27 -109 -21 -109 16 0 32 -17
63 -35 63 -17 0 -20 16 -5 25 16 10 12 40 -8 58 -23 21 -109 40 -148 32 -48
-8 -87 -52 -81 -90 3 -16 1 -76 -5 -132 -6 -56 -8 -113 -4 -127 7 -28 57 -49
107 -44 31 3 31 2 48 -65 10 -37 22 -72 28 -78 19 -19 89 -22 138 -6 l46 16
-7 -67 c-3 -37 -8 -70 -10 -74 -9 -15 -65 -321 -60 -333 2 -7 18 -15 35 -18
42 -9 39 -31 -6 -54 -46 -22 -51 -53 -11 -67 36 -13 185 31 192 57 3 14 9 15
30 7 36 -13 115 -14 147 -2 23 9 28 8 32 -9 3 -11 14 -19 26 -19 11 0 43 -9
70 -20 78 -30 154 -12 117 28 -16 19 -15 20 36 37 68 22 162 71 185 98 18 20
17 20 -7 14 -23 -5 -22 -3 10 26 51 46 96 107 136 183 38 73 37 96 -3 49 -38
-44 -183 -197 -183 -193 0 21 50 99 76 121 39 32 64 75 56 96 -3 9 0 11 8 6 9
-5 11 -4 6 4 -9 14 2 51 15 51 6 0 7 -4 4 -10 -3 -5 -3 -10 0 -10 14 0 68 138
70 180 2 25 5 65 9 90 l6 45 -14 -35 -14 -35 5 55 c6 62 -1 64 -16 4 -9 -35
-10 -33 -5 20 4 45 3 56 -7 51 -9 -6 -11 1 -6 28 3 20 1 39 -4 42 -5 4 -9 -9
-10 -27 -1 -18 -5 -44 -9 -58 -7 -21 -8 -22 -9 -5 -3 39 -31 -44 -87 -254 -8
-30 -13 -56 -10 -58 2 -2 7 9 11 26 4 17 11 34 17 37 9 6 6 -12 -9 -53 -3 -7
0 -13 6 -13 6 0 11 -7 11 -16 0 -14 3 -14 15 -4 24 20 31 2 8 -21 -24 -24 -43
-18 -43 14 0 18 -2 19 -10 7 -9 -13 -10 -13 -11 0 -2 35 -38 -90 -38 -135 -1
-39 -8 -60 -32 -95 -17 -25 -28 -36 -25 -25 8 29 17 120 12 114 -2 -2 -25 -45
-50 -95 -68 -135 -70 -135 -90 -2 -10 62 -22 129 -27 148 -5 19 -13 67 -17
107 l-8 71 24 -18 c31 -25 107 -37 128 -19 22 18 44 76 45 118 0 32 1 34 10
13 5 -15 16 -22 26 -20 15 3 19 16 21 75 2 47 8 75 17 83 21 17 20 80 0 80 -9
0 -15 6 -14 13 5 42 -2 69 -21 74 -28 7 -25 17 12 34 45 20 58 46 34 65 -11 8
-27 12 -35 9 -10 -3 -22 6 -33 25 -26 45 -78 35 -78 -15 0 -14 -10 -24 -30
-32 -16 -6 -30 -18 -30 -27 0 -20 38 -46 70 -46 24 -1 24 -1 5 -16 -11 -8 -20
-22 -21 -32 -2 -48 -5 -52 -27 -52 -13 0 -28 -5 -35 -12 -9 -9 -28 -5 -82 16
-38 15 -73 32 -76 38 -3 5 3 19 14 31 52 58 51 96 -6 192 -35 60 -127 183
-147 197 -17 12 -23 10 -65 -28z m108 -138 c15 -8 36 -25 47 -37 20 -24 20
-24 0 -8 -60 49 -123 61 -175 34 -38 -20 -40 -11 -2 9 34 19 95 20 130 2z
m-18 -44 c51 -26 55 -32 58 -67 4 -45 -20 -115 -49 -141 -28 -25 -91 -24 -120
1 -31 28 -49 76 -49 130 0 44 1 46 44 65 24 10 47 23 50 29 9 14 3 16 66 -17z
m407 -62 c2 -33 2 -34 -9 -10 l-11 25 -7 -25 -7 -25 -8 27 c-8 32 1 50 23 46
12 -2 18 -15 19 -38z m-874 -22 c25 -13 22 -48 -5 -50 -13 -1 -32 -3 -43 -4
-11 -1 -32 -2 -48 -3 -22 -1 -29 -7 -34 -31 -6 -34 -28 -35 -28 -3 0 12 -3 25
-7 29 -22 22 5 66 47 77 25 6 94 -2 118 -15z m943 1 c10 -17 -21 -41 -47 -37
-23 4 -23 5 6 17 23 10 26 14 15 21 -13 8 -12 10 2 10 9 0 20 -5 24 -11z
m-135 -16 c-10 -4 -8 -9 10 -19 l24 -13 -26 -1 c-27 0 -54 21 -42 33 3 4 16 7
27 6 14 0 16 -3 7 -6z m-221 -43 c-6 -11 -13 -20 -16 -20 -2 0 0 9 6 20 6 11
13 20 16 20 2 0 0 -9 -6 -20z m-586 -43 c3 -16 6 -71 6 -122 l0 -93 -31 -11
c-41 -14 -87 -14 -128 0 l-32 11 3 92 3 91 30 5 c21 4 31 12 33 27 3 22 17 27
79 29 27 0 32 -4 37 -29z m902 8 c16 -13 17 -16 4 -25 -9 -6 -10 -10 -3 -10
14 0 18 -256 4 -264 -11 -7 -34 50 -48 121 -8 45 -11 58 -14 58 -1 0 -3 9 -4
20 -1 11 -6 37 -10 57 -6 34 -5 39 16 47 32 13 32 13 55 -4z m-848 -37 c2 -14
-4 -41 -12 -59 l-14 -34 -1 36 c-1 19 4 40 11 47 9 9 9 12 0 12 -7 0 -12 7
-12 16 0 26 25 10 28 -18z m778 -88 c11 -51 5 -70 -24 -70 -11 0 -13 9 -8 38
3 20 6 50 6 66 0 41 13 24 26 -34z m109 -10 c3 -5 1 -10 -4 -10 -6 0 -11 5
-11 10 0 6 2 10 4 10 3 0 8 -4 11 -10z m125 -60 l-11 -25 6 25 c2 14 5 34 6
45 2 19 2 19 6 0 2 -12 -1 -32 -7 -45z m-1022 -38 c-3 -57 -11 -99 -22 -117
-10 -17 -14 -21 -10 -10 4 11 12 64 17 118 6 53 13 97 15 97 3 0 3 -40 0 -88z
m49 36 c-3 -7 -5 -2 -5 12 0 14 2 19 5 13 2 -7 2 -19 0 -25z m950 10 c-3 -8
-6 -5 -6 6 -1 11 2 17 5 13 3 -3 4 -12 1 -19z m-585 -59 l-5 -62 67 5 66 6 0
-55 c0 -50 -1 -53 -19 -43 -11 5 -41 10 -66 10 l-47 0 4 -140 3 -140 -53 0
c-50 0 -52 1 -42 20 6 12 9 68 8 137 l-3 118 -45 0 c-25 0 -55 -4 -67 -8 -22
-8 -23 -6 -23 47 l0 55 70 -6 70 -6 0 42 c0 23 -5 51 -10 62 -10 18 -7 19 43
19 l53 0 -4 -61z m-275 14 c-3 -10 -5 -4 -5 12 0 17 2 24 5 18 2 -7 2 -21 0
-30z m847 -7 c-3 -15 -8 -25 -11 -23 -2 3 -1 17 3 31 3 15 8 25 11 23 2 -3 1
-17 -3 -31z m36 -41 c-6 -15 -5 -25 1 -27 6 -2 4 -11 -4 -21 -11 -16 -13 -14
-14 24 -2 46 3 62 17 54 6 -3 5 -16 0 -30z m-33 -52 c-3 -10 -5 -4 -5 12 0 17
2 24 5 18 2 -7 2 -21 0 -30z m73 -10 c-11 -17 -11 -17 -6 0 3 10 6 24 7 30 0
9 2 9 5 0 3 -7 0 -20 -6 -30z m-70 -37 c0 7 7 15 16 18 15 6 15 4 2 -16 -22
-32 -42 -29 -46 7 l-2 30 14 -25 c9 -14 15 -20 16 -14z m-30 -43 c0 -13 3 -14
12 -5 16 16 29 15 22 -2 -8 -21 -36 -29 -46 -14 -11 18 -10 38 2 38 6 0 10 -8
10 -17z m-795 -179 c-9 -54 -18 -100 -20 -103 -7 -6 -6 9 6 96 11 86 18 117
25 110 3 -3 -2 -49 -11 -103z m419 -14 c8 -63 13 -116 12 -118 -7 -6 -26 96
-32 171 -10 110 3 75 20 -53z m336 83 c0 -15 1 -15 18 0 24 22 28 21 28 -2 0
-11 -4 -18 -7 -15 -4 2 -10 0 -14 -5 -11 -20 -45 -8 -45 16 0 13 5 23 10 23 6
0 10 -7 10 -17z m-705 -186 c-15 -106 -25 -144 -25 -101 0 44 35 267 38 241 2
-15 -4 -78 -13 -140z m666 110 c-13 -13 -15 11 -4 40 7 16 8 15 11 -6 2 -13
-1 -28 -7 -34z m36 -4 c-14 -15 -29 -24 -33 -21 -3 4 6 19 21 33 14 15 29 24
33 21 3 -4 -6 -19 -21 -33z m79 -21 c-38 -73 -165 -202 -199 -202 -6 0 12 24
40 53 27 28 76 80 108 115 32 34 60 62 62 62 2 0 -3 -13 -11 -28z m-517 -102
c-1 -75 -6 -63 -12 28 -2 34 0 57 5 50 4 -7 7 -42 7 -78z m70 -29 c1 -51 -5
-34 -12 29 -4 36 -3 46 3 30 4 -14 8 -40 9 -59z m213 -23 c-10 -24 -30 -52
-43 -63 l-23 -20 15 25 c9 14 26 45 38 68 28 56 39 48 13 -10z m-465 -60 c-2
-18 -4 -6 -4 27 0 33 2 48 4 33 2 -15 2 -42 0 -60z m547 1 c-9 -14 -125 -69
-144 -68 -8 0 21 18 65 40 91 44 89 43 79 28z m-209 -59 c-10 -11 -22 -17 -26
-14 -15 9 -10 22 9 27 33 9 35 7 17 -13z m-465 0 c13 -9 13 -10 0 -10 -8 0
-22 5 -30 10 -13 9 -13 10 0 10 8 0 22 -5 30 -10z m385 0 c-3 -5 -12 -10 -18
-10 -7 0 -6 4 3 10 19 12 23 12 15 0z"/>
<path d="M1180 1703 c0 -5 14 -8 30 -9 17 -1 30 3 30 7 0 5 -13 9 -30 9 -16 0
-30 -3 -30 -7z"/>
<path d="M1283 1703 c-7 -2 -13 -17 -12 -31 0 -25 1 -25 9 -6 9 23 36 38 51
28 5 -3 9 0 9 5 0 11 -35 14 -57 4z"/>
<path d="M1192 1683 c-6 -3 -10 -9 -6 -14 7 -12 44 -12 44 0 0 11 -21 19 -38
14z"/>
<path d="M1300 1670 c0 -5 7 -10 15 -10 8 0 15 5 15 10 0 6 -7 10 -15 10 -8 0
-15 -4 -15 -10z"/>
<path d="M1235 1610 c3 -5 16 -10 28 -9 21 0 21 1 2 9 -28 12 -37 12 -30 0z"/>
<path d="M1255 1581 c-35 -6 -37 -8 -17 -14 25 -9 62 -1 62 14 0 5 -1 8 -2 8
-2 -1 -21 -5 -43 -8z"/>
<path d="M821 1555 c-1 -5 -2 -45 -1 -88 1 -54 -2 -77 -9 -72 -6 3 -11 39 -11
82 0 42 -3 73 -7 69 -5 -4 -8 -44 -8 -89 l0 -82 -37 -3 c-27 -2 -43 3 -57 17
-21 21 -21 21 -21 1 0 -13 10 -24 28 -31 31 -12 118 -7 133 8 7 7 7 42 1 104
-5 52 -10 90 -11 84z"/>
<path d="M684 1236 c-3 -9 -4 -25 -1 -36 5 -18 3 -18 -15 -6 -14 10 -27 12
-47 5 -29 -10 -47 -43 -57 -107 l-7 -43 39 7 c59 11 104 42 104 71 0 22 2 24
15 13 8 -7 15 -18 15 -25 0 -7 -7 -18 -15 -25 -8 -7 -15 -21 -15 -31 0 -12 -7
-19 -19 -19 -33 0 -69 -43 -69 -84 0 -20 6 -42 12 -49 7 -7 16 -23 19 -37 8
-30 59 -70 65 -52 2 7 9 12 16 12 19 0 45 38 55 81 12 52 18 58 27 26 4 -19 0
-34 -15 -53 -22 -28 -27 -54 -12 -70 5 -5 11 -20 13 -33 1 -13 11 -29 22 -35
14 -9 20 -7 30 8 6 10 19 26 29 35 35 31 12 121 -31 121 -12 0 -32 31 -32 50
0 7 6 8 19 1 24 -14 31 -5 31 40 0 21 4 41 10 44 17 10 -18 64 -45 71 -14 3
-36 4 -50 2 -32 -6 -58 31 -61 87 -2 41 -19 59 -30 31z m-25 -65 c12 -8 10
-12 -12 -22 -31 -14 -40 -9 -31 15 7 18 22 20 43 7z m11 -60 c-13 -9 -39 -21
-57 -27 -29 -10 -33 -10 -33 6 0 10 7 24 17 31 15 13 15 12 4 -10 l-13 -23 43
25 c45 27 80 25 39 -2z m158 -17 c12 -8 22 -20 22 -25 0 -12 -43 -1 -48 12 -2
5 -11 9 -20 9 -15 0 -15 2 -2 10 20 13 22 13 48 -6z m-92 -60 c-3 -9 -10 -12
-16 -9 -14 9 -13 38 3 54 10 10 13 8 15 -9 2 -12 1 -28 -2 -36z m31 32 c-4 -9
4 -18 23 -25 24 -8 28 -7 23 5 -3 8 0 14 6 14 15 0 29 -39 23 -62 -5 -22 -16
-23 -32 -3 -7 8 -16 13 -20 10 -11 -7 -40 35 -40 57 0 10 5 18 11 18 6 0 9 -6
6 -14z m-78 -63 c0 -11 -3 -13 -6 -6 -3 10 -8 9 -20 -3 -19 -19 -30 -10 -13
11 17 20 40 19 39 -2z m71 -14 c7 -11 9 -23 6 -26 -3 -3 -9 3 -13 13 -3 10
-11 22 -17 26 -8 5 -7 8 1 8 7 0 17 -9 23 -21z m-59 -12 c-10 -9 -11 -8 -5 6
3 10 9 15 12 12 3 -3 0 -11 -7 -18z m-33 -27 c7 -12 17 -18 22 -15 6 3 10 -1
10 -9 0 -23 -17 -19 -31 6 -8 14 -14 18 -17 10 -6 -20 -21 -13 -15 8 7 25 15
25 31 0z m72 1 c0 -17 -18 -21 -24 -6 -3 9 0 15 9 15 8 0 15 -4 15 -9z m17
-43 c-3 -7 -5 -2 -5 12 0 14 2 19 5 13 2 -7 2 -19 0 -25z m-90 -30 c-3 -8 -6
-5 -6 6 -1 11 2 17 5 13 3 -3 4 -12 1 -19z m61 -6 c6 -18 -15 -14 -22 4 -4 10
-1 14 6 12 6 -2 14 -10 16 -16z m127 8 c3 -5 1 -10 -4 -10 -6 0 -11 5 -11 10
0 6 2 10 4 10 3 0 8 -4 11 -10z m-39 -17 c-3 -21 -26 -30 -26 -10 0 7 3 17 7
20 12 12 21 7 19 -10z m-118 -18 c-3 -3 -9 2 -12 12 -6 14 -5 15 5 6 7 -7 10
-15 7 -18z m172 -21 c0 -7 -6 -11 -14 -8 -9 3 -15 -5 -20 -27 -5 -27 -8 -30
-21 -19 -17 14 -20 46 -5 55 6 3 10 1 10 -6 0 -7 6 -4 14 6 8 11 12 24 8 30
-3 5 2 4 11 -4 9 -7 17 -20 17 -27z"/>
<path d="M1952 2066 c-31 -17 -62 -65 -62 -96 0 -55 65 -122 104 -107 24 9 19
21 -14 34 -59 22 -45 98 25 132 25 12 32 12 54 -1 21 -11 25 -21 23 -46 -3
-38 11 -41 33 -8 43 65 -84 137 -163 92z"/>
<path d="M402 1975 c-26 -33 -28 -45 -6 -45 19 0 136 -96 145 -118 4 -12 10
-8 27 15 25 35 27 43 11 43 -11 0 -125 93 -145 119 -9 11 -15 8 -32 -14z"/>
<path d="M2157 1936 c-7 -17 -136 -106 -154 -106 -9 0 -8 -9 4 -35 19 -41 24
-42 49 -14 35 39 52 42 71 13 16 -25 16 -27 -8 -45 -13 -10 -32 -19 -41 -19
-22 0 -22 -3 -2 -42 16 -30 16 -30 37 -11 30 27 129 86 145 86 16 0 15 12 -4
48 l-15 31 -24 -26 c-30 -33 -40 -33 -62 0 -16 25 -16 27 2 40 10 8 27 14 37
14 23 0 23 5 -3 46 -23 39 -25 39 -32 20z"/>
<path d="M332 1880 c-13 -22 -9 -40 11 -40 11 0 77 -72 77 -83 0 -10 -113 22
-120 34 -6 9 -14 2 -29 -22 -26 -43 -26 -49 1 -49 12 0 61 -8 109 -17 72 -14
90 -14 103 -4 9 8 16 18 16 23 0 5 -31 42 -70 83 -38 41 -70 79 -70 84 0 18
-14 13 -28 -9z"/>
<path d="M286 1325 c-5 -20 -13 -25 -39 -25 l-32 0 24 -19 c20 -15 22 -23 16
-52 l-7 -34 21 19 c21 19 23 19 51 3 l29 -18 -11 33 c-8 21 -8 33 -1 35 6 2
19 10 29 18 18 13 17 14 -14 15 -25 0 -35 5 -42 25 -5 14 -11 25 -14 25 -2 0
-7 -11 -10 -25z"/>
<path d="M2235 1328 c-6 -23 -13 -28 -38 -28 l-30 0 22 -23 c18 -20 20 -28 12
-50 -12 -30 -5 -33 23 -12 17 13 23 13 44 -1 24 -16 25 -16 18 11 -5 21 -2 33
15 51 l22 24 -30 0 c-25 0 -33 6 -41 28 l-10 27 -7 -27z"/>
<path d="M318 942 c-65 -51 -60 -67 22 -67 75 -1 81 1 74 19 -4 11 -13 12 -37
5 -52 -15 -65 -11 -38 12 13 11 30 23 38 28 13 7 8 42 -6 40 -3 0 -27 -17 -53
-37z"/>
<path d="M2157 932 c-22 -24 -21 -54 1 -83 26 -31 78 -31 104 0 24 31 23 47
-7 76 -29 30 -75 33 -98 7z m83 -30 c29 -24 19 -42 -24 -42 -36 0 -56 15 -56
42 0 24 50 24 80 0z"/>
<path d="M382 835 c-23 -13 -50 -25 -60 -27 -15 -2 -18 -8 -11 -24 l8 -22 48
24 c26 13 54 24 61 24 13 0 17 36 4 44 -5 3 -27 -6 -50 -19z"/>
<path d="M2116 843 c-15 -15 -4 -31 27 -39 l32 -8 -40 -3 c-22 -2 -45 -11 -52
-20 -11 -14 -4 -20 48 -44 70 -34 69 -33 69 -15 0 8 -15 20 -32 27 l-33 13 47
4 c70 5 69 26 -1 62 -32 16 -61 26 -65 23z"/>
<path d="M395 761 c-27 -14 -51 -27 -53 -28 -9 -4 41 -84 50 -81 19 7 21 28 3
28 -31 0 -11 35 32 55 24 11 42 26 40 34 -3 22 -18 21 -72 -8z"/>
<path d="M466 674 c-22 -19 -45 -34 -53 -34 -20 0 -16 -12 15 -50 19 -22 33
-31 42 -25 10 6 7 12 -11 26 l-24 19 35 30 c19 16 41 30 48 30 6 0 12 4 12 9
0 5 -6 13 -12 19 -10 7 -24 1 -52 -24z"/>
<path d="M2030 686 c0 -8 11 -27 24 -43 12 -15 29 -39 35 -52 9 -15 16 -20 23
-13 7 7 6 17 -1 30 -14 25 8 49 28 29 9 -9 14 -9 21 3 15 24 13 26 -50 43 -73
21 -80 21 -80 3z m70 -30 c0 -11 -19 -15 -25 -6 -3 5 1 10 9 10 9 0 16 -2 16
-4z"/>
<path d="M1944 595 l-26 -27 52 -48 c48 -45 54 -48 66 -32 11 14 9 19 -9 29
-20 11 -19 12 17 15 49 4 60 25 15 30 -26 2 -35 9 -39 28 -8 35 -43 38 -76 5z
m51 -15 c11 -17 -5 -32 -21 -19 -7 6 -11 15 -8 20 7 12 21 11 29 -1z"/>
<path d="M530 572 c-30 -15 -57 -28 -59 -30 -3 -1 0 -7 7 -14 8 -8 15 -8 25 0
10 9 16 9 25 0 15 -15 15 -38 1 -38 -8 0 -8 -5 1 -15 19 -23 24 -19 53 40 45
93 37 101 -53 57z m35 -22 c-3 -5 -11 -10 -16 -10 -6 0 -7 5 -4 10 3 6 11 10
16 10 6 0 7 -4 4 -10z"/>
<path d="M1867 522 c-22 -25 -21 -64 2 -93 17 -22 17 -27 5 -44 -18 -25 -41
-13 -69 38 -17 29 -24 34 -38 26 -16 -9 -15 -13 7 -42 14 -18 31 -44 39 -59
l14 -27 36 25 c23 16 34 29 31 39 -5 11 1 15 19 15 14 0 39 11 54 24 l28 25
-27 28 c-22 21 -30 25 -40 15 -9 -9 -8 -16 5 -30 22 -24 21 -32 -2 -32 -21 0
-64 47 -58 64 2 6 13 15 25 21 12 5 22 13 22 17 0 15 -37 8 -53 -10z"/>
<path d="M659 480 c-9 -5 -22 -23 -29 -40 -10 -25 -10 -34 4 -54 24 -37 53
-42 82 -15 23 22 24 24 8 36 -24 18 -31 16 -37 -8 -7 -27 -27 -15 -27 16 0 15
10 31 26 42 26 16 27 16 45 -6 17 -21 19 -21 26 -6 13 35 -57 59 -98 35z"/>
<path d="M762 396 c-11 -24 -25 -47 -31 -50 -6 -4 -11 -11 -11 -16 0 -13 76
-51 84 -43 12 12 6 21 -19 27 -28 7 -32 18 -11 35 10 8 16 9 21 1 3 -6 11 -8
16 -5 14 9 11 25 -6 25 -17 0 -19 9 -5 30 9 13 12 13 24 -2 16 -22 26 -23 26
-3 0 12 -47 45 -64 45 -3 0 -14 -20 -24 -44z"/>
<path d="M1687 404 c-16 -8 -27 -18 -25 -22 28 -57 53 -108 55 -111 2 -2 20 4
42 14 25 11 38 22 34 31 -4 11 -9 11 -27 -1 -23 -16 -36 -11 -36 12 0 7 7 13
15 13 8 0 15 7 15 15 0 11 -8 15 -27 13 -20 -2 -28 2 -28 12 0 8 8 15 17 15
21 0 25 19 6 22 -7 1 -26 -4 -41 -13z"/>
<path d="M870 385 c0 -8 -11 -37 -24 -65 -13 -27 -21 -51 -18 -54 12 -13 32
-5 32 13 0 26 10 51 21 51 5 0 9 -15 9 -33 0 -18 6 -42 14 -52 13 -18 16 -16
42 40 15 33 30 63 31 66 2 4 -5 9 -17 12 -15 4 -20 0 -20 -16 0 -12 -5 -29
-10 -37 -7 -11 -11 -4 -16 28 -4 26 -14 47 -25 53 -15 7 -19 6 -19 -6z"/>
<path d="M1573 355 l-32 -13 20 -38 c10 -21 19 -51 19 -67 0 -25 3 -27 23 -21
71 22 96 56 62 84 -8 7 -15 20 -15 29 0 19 -19 41 -34 41 -6 -1 -25 -7 -43
-15z m45 -27 c-6 -18 -28 -21 -28 -4 0 9 7 16 16 16 9 0 14 -5 12 -12z m25
-52 c7 -16 -1 -26 -20 -26 -7 0 -13 9 -13 20 0 23 25 27 33 6z"/>
<path d="M979 285 c-9 -36 -14 -67 -10 -69 3 -2 22 -7 42 -11 28 -5 38 -3 42
8 4 12 -1 15 -21 14 -18 -1 -27 3 -27 13 0 10 8 14 23 13 16 -2 22 2 22 17 0
13 -5 18 -15 14 -10 -4 -15 0 -15 15 0 23 19 28 38 9 9 -9 12 -8 12 4 0 13
-45 38 -69 38 -3 0 -13 -29 -22 -65z"/>
<path d="M1093 258 c-7 -46 -7 -65 1 -70 19 -13 25 -9 28 20 l4 27 11 -26 c6
-15 21 -29 33 -32 17 -4 20 -2 14 11 -9 20 -8 47 1 83 5 21 2 27 -20 37 -51
24 -60 17 -72 -50z m65 20 c-6 -18 -28 -21 -28 -4 0 9 7 16 16 16 9 0 14 -5
12 -12z"/>
<path d="M1358 314 c-4 -3 -2 -20 3 -37 5 -18 9 -49 9 -69 0 -37 1 -37 33 -32
52 9 57 12 57 35 0 22 -1 22 -20 4 -28 -25 -39 -11 -42 53 -2 40 -6 52 -19 52
-8 0 -18 -3 -21 -6z"/>
<path d="M1255 298 c-2 -7 -13 -38 -25 -68 -11 -30 -20 -56 -20 -57 0 -2 9 -3
20 -3 13 0 20 7 20 20 0 13 7 20 20 20 13 0 20 -7 20 -20 0 -15 7 -20 25 -20
14 0 25 1 25 3 0 1 -11 31 -24 67 -23 62 -50 89 -61 58z m21 -65 c-10 -10 -19
5 -10 18 6 11 8 11 12 0 2 -7 1 -15 -2 -18z"/>
</g>
</svg>
